# Blender v2.70 (sub 0) OBJ File: 'city.blend'
# www.blender.org
v -1.050000 0.000000 -1.050000
v -1.050000 0.000000 1.050000
v 1.050000 0.000000 -1.050000
v 1.050000 0.000000 1.050000
v -1.050000 0.050000 -1.050000
v -1.050000 0.050000 1.050000
v 1.050000 0.050000 -1.050000
v 1.050000 0.050000 1.050000
v -1.000000 0.000000 -1.050000
v -1.000000 0.000000 1.050000
v -1.000000 0.050000 -1.050000
v -1.000000 0.050000 1.050000
v 1.000000 0.000000 1.050000
v 1.000000 0.050000 1.050000
v 1.000000 0.000000 -1.050000
v 1.000000 0.050000 -1.050000
v -1.050000 0.000000 -1.000000
v 1.050000 0.000000 -1.000000
v -1.050000 0.050000 -1.000000
v 1.050000 0.050000 -1.000000
v -1.000000 0.000000 -1.000000
v -1.000000 0.050000 -1.000000
v 1.000000 0.000000 -1.000000
v 1.000000 0.050000 -1.000000
v -1.050000 0.000000 1.000000
v -1.050000 0.050000 1.000000
v -1.000000 0.000000 1.000000
v 1.000000 0.000000 1.000000
v 1.050000 0.000000 1.000000
v 1.050000 0.050000 1.000000
v -1.000000 0.050000 1.000000
v 1.000000 0.050000 1.000000
v -1.000000 0.250000 -1.000000
v 1.000000 0.250000 -1.000000
v -1.000000 0.250000 1.000000
v 1.000000 0.250000 1.000000
vn 0.000000 -1.000000 0.000000
vn 0.000000 1.000000 0.000000
vn 1.000000 0.000000 0.000000
vn 0.000000 0.000000 1.000000
vn -1.000000 0.000000 0.000000
vn 0.000000 0.000000 -1.000000
s off
f 28//1 29//1 4//1 13//1
f 32//2 14//2 8//2 30//2
f 18//3 3//3 7//3 20//3
f 13//4 4//4 8//4 14//4
f 25//5 2//5 6//5 26//5
f 9//6 1//6 5//6 11//6
f 25//1 27//1 10//1 2//1
f 26//2 6//2 12//2 31//2
f 2//4 10//4 12//4 6//4
f 15//6 9//6 11//6 16//6
f 27//1 28//1 13//1 10//1
f 31//2 12//2 14//2 32//2
f 10//4 13//4 14//4 12//4
f 3//6 15//6 16//6 7//6
f 15//1 3//1 18//1 23//1
f 16//2 24//2 20//2 7//2
f 29//3 18//3 20//3 30//3
f 1//5 17//5 19//5 5//5
f 1//1 9//1 21//1 17//1
f 5//2 19//2 22//2 11//2
f 9//1 15//1 23//1 21//1
f 11//2 22//2 24//2 16//2
f 23//1 18//1 29//1 28//1
f 24//2 32//2 30//2 20//2
f 17//5 25//5 26//5 19//5
f 17//1 21//1 27//1 25//1
f 19//2 26//2 31//2 22//2
f 21//1 23//1 28//1 27//1
f 31//4 32//4 36//4 35//4
f 4//3 29//3 30//3 8//3
f 33//2 35//2 36//2 34//2
f 32//3 24//3 34//3 36//3
f 22//5 31//5 35//5 33//5
f 24//6 22//6 33//6 34//6
